<svg width="98" height="47" viewBox="0 0 98 47" fill="none"
    xmlns="http://www.w3.org/2000/svg">
    <path d="M97.8892 42.8139C98.0626 42.5989 98.0288 42.2841 97.8139 42.1108L94.3109 39.286C94.096 39.1126 93.7812 39.1464 93.6078 39.3613C93.4345 39.5763 93.4682 39.8911 93.6832 40.0644L96.7969 42.5753L94.286 45.6891C94.1126 45.904 94.1464 46.2188 94.3613 46.3921C94.5763 46.5655 94.8911 46.5318 95.0644 46.3168L97.8892 42.8139ZM0.0480068 1.21378C0.32928 1.80847 0.610534 2.39658 0.891953 2.97813L1.7921 2.54254C1.51203 1.96378 1.23206 1.37835 0.951993 0.786219L0.0480068 1.21378ZM3.50277 8.16655C4.11635 9.33545 4.73344 10.4743 5.35593 11.5835L6.22798 11.0941C5.61042 9.99369 4.99778 8.86306 4.3882 7.70177L3.50277 8.16655ZM8.33439 16.5878C9.04165 17.704 9.75908 18.7851 10.4892 19.8313L11.3092 19.259C10.5882 18.2258 9.87898 17.1571 9.17911 16.0525L8.33439 16.5878ZM14.0163 24.485C14.8567 25.5013 15.7165 26.4775 16.599 27.414L17.3268 26.7281C16.4598 25.8082 15.6142 24.8483 14.787 23.8478L14.0163 24.485ZM20.838 31.45C21.8324 32.295 22.8562 33.098 23.9129 33.8594L24.4975 33.0481C23.4629 32.3025 22.46 31.5161 21.4856 30.688L20.838 31.45ZM28.8665 36.9882C29.995 37.6085 31.159 38.1902 32.3617 38.7339L32.7737 37.8227C31.5943 37.2895 30.4535 36.7194 29.3482 36.1118L28.8665 36.9882ZM37.8216 40.8532C39.0285 41.251 40.2714 41.6178 41.5526 41.9541L41.8065 40.9869C40.5444 40.6556 39.3213 40.2946 38.1346 39.9035L37.8216 40.8532ZM47.2693 43.2069C48.5159 43.4305 49.7958 43.6303 51.1108 43.8066L51.2437 42.8155C49.9426 42.641 48.6773 42.4435 47.4459 42.2226L47.2693 43.2069ZM56.8924 44.414C58.1539 44.5126 59.4452 44.5931 60.7674 44.6556L60.8146 43.6567C59.5021 43.5947 58.2211 43.5148 56.9703 43.417L56.8924 44.414ZM66.605 44.8142C67.8681 44.8248 69.1574 44.8214 70.4737 44.8041L70.4606 43.8042C69.1511 43.8214 67.869 43.8248 66.6134 43.8142L66.605 44.8142ZM76.3051 44.6443C77.5668 44.5929 78.8517 44.5303 80.1604 44.4567L80.1043 43.4583C78.8005 43.5316 77.5208 43.594 76.2644 43.6451L76.3051 44.6443ZM85.9715 44.0698C87.2309 43.9737 88.511 43.8685 89.8123 43.7544L89.7249 42.7582C88.4272 42.872 87.1509 42.9769 85.8954 43.0727L85.9715 44.0698ZM95.5972 43.2024C96.2443 43.136 96.8963 43.0676 97.5533 42.9972L97.4467 42.0028C96.7912 42.0731 96.1406 42.1414 95.495 42.2076L95.5972 43.2024Z" fill="#B2B5C3"/>
</svg>
