<svg width="170" height="29" viewBox="0 0 170 29" fill="none"
    xmlns="http://www.w3.org/2000/svg">
    <path d="M40.5781 18.5234C40.5781 17.8281 40.3984 17.3047 40.0391 16.9531C39.6875 16.5938 39.043 16.2227 38.1055 15.8398C36.3945 15.1914 35.1641 14.4336 34.4141 13.5664C33.6641 12.6914 33.2891 11.6602 33.2891 10.4727C33.2891 9.03516 33.7969 7.88281 34.8125 7.01562C35.8359 6.14062 37.1328 5.70312 38.7031 5.70312C39.75 5.70312 40.6836 5.92578 41.5039 6.37109C42.3242 6.80859 42.9531 7.42969 43.3906 8.23438C43.8359 9.03906 44.0586 9.95312 44.0586 10.9766H40.625C40.625 10.1797 40.4531 9.57422 40.1094 9.16016C39.7734 8.73828 39.2852 8.52734 38.6445 8.52734C38.043 8.52734 37.5742 8.70703 37.2383 9.06641C36.9023 9.41797 36.7344 9.89453 36.7344 10.4961C36.7344 10.9648 36.9219 11.3906 37.2969 11.7734C37.6719 12.1484 38.3359 12.5391 39.2891 12.9453C40.9531 13.5469 42.1602 14.2852 42.9102 15.1602C43.668 16.0352 44.0469 17.1484 44.0469 18.5C44.0469 19.9844 43.5742 21.1445 42.6289 21.9805C41.6836 22.8164 40.3984 23.2344 38.7734 23.2344C37.6719 23.2344 36.668 23.0078 35.7617 22.5547C34.8555 22.1016 34.1445 21.4531 33.6289 20.6094C33.1211 19.7656 32.8672 18.7695 32.8672 17.6211H36.3242C36.3242 18.6055 36.5156 19.3203 36.8984 19.7656C37.2812 20.2109 37.9062 20.4336 38.7734 20.4336C39.9766 20.4336 40.5781 19.7969 40.5781 18.5234ZM50.0234 7.20312V10.3203H51.7227V12.8164H50.0234V19.1094C50.0234 19.6094 50.0898 19.9531 50.2227 20.1406C50.3633 20.3281 50.6289 20.4219 51.0195 20.4219C51.3398 20.4219 51.6016 20.3945 51.8047 20.3398L51.7812 22.918C51.2188 23.1289 50.6094 23.2344 49.9531 23.2344C47.8125 23.2344 46.7305 22.0078 46.707 19.5547V12.8164H45.2422V10.3203H46.707V7.20312H50.0234ZM59.5742 23C59.4805 22.8047 59.3867 22.4766 59.293 22.0156C58.6992 22.8281 57.8945 23.2344 56.8789 23.2344C55.8164 23.2344 54.9336 22.8828 54.2305 22.1797C53.5352 21.4766 53.1875 20.5664 53.1875 19.4492C53.1875 18.1211 53.6094 17.0938 54.4531 16.3672C55.3047 15.6406 56.5273 15.2695 58.1211 15.2539H59.1289V14.2344C59.1289 13.6641 59.0312 13.2617 58.8359 13.0273C58.6406 12.793 58.3555 12.6758 57.9805 12.6758C57.1523 12.6758 56.7383 13.1602 56.7383 14.1289H53.4219C53.4219 12.957 53.8594 11.9922 54.7344 11.2344C55.6172 10.4688 56.7305 10.0859 58.0742 10.0859C59.4648 10.0859 60.5391 10.4492 61.2969 11.1758C62.0625 11.8945 62.4453 12.9258 62.4453 14.2695V20.2344C62.4609 21.3281 62.6172 22.1836 62.9141 22.8008V23H59.5742ZM57.6172 20.6328C57.9844 20.6328 58.2969 20.5586 58.5547 20.4102C58.8125 20.2617 59.0039 20.0859 59.1289 19.8828V17.2461H58.332C57.7695 17.2461 57.3242 17.4258 56.9961 17.7852C56.6758 18.1445 56.5156 18.625 56.5156 19.2266C56.5156 20.1641 56.8828 20.6328 57.6172 20.6328ZM69.4297 20.4805C70.3906 20.4805 70.8789 19.8555 70.8945 18.6055H74.0117C73.9961 19.9883 73.5703 21.1055 72.7344 21.957C71.8984 22.8086 70.8203 23.2344 69.5 23.2344C67.8672 23.2344 66.6211 22.7266 65.7617 21.7109C64.9023 20.6953 64.4648 19.1992 64.4492 17.2227V16.2148C64.4492 14.2227 64.8711 12.7031 65.7148 11.6562C66.5664 10.6094 67.8203 10.0859 69.4766 10.0859C70.875 10.0859 71.9766 10.5195 72.7812 11.3867C73.5859 12.2461 73.9961 13.4688 74.0117 15.0547H70.8945C70.8867 14.3438 70.7695 13.7969 70.543 13.4141C70.3164 13.0312 69.9414 12.8398 69.418 12.8398C68.8398 12.8398 68.4258 13.0469 68.1758 13.4609C67.9258 13.8672 67.793 14.6602 67.7773 15.8398V17.1289C67.7773 18.1602 67.8281 18.8828 67.9297 19.2969C68.0312 19.7031 68.1992 20.0039 68.4336 20.1992C68.668 20.3867 69 20.4805 69.4297 20.4805ZM80.0938 18.1133L79.2031 19.1094V23H75.8867V5H79.2031V14.7266L79.6133 14.1172L81.9102 10.3203H85.8594L82.1797 15.5469L86.2109 23H82.4141L80.0938 18.1133ZM92.2578 23.2344C90.5547 23.2344 89.2266 22.7266 88.2734 21.7109C87.3203 20.6953 86.8438 19.2422 86.8438 17.3516V16.3438C86.8438 14.3438 87.2812 12.8008 88.1562 11.7148C89.0312 10.6289 90.2852 10.0859 91.918 10.0859C93.5117 10.0859 94.7109 10.5977 95.5156 11.6211C96.3203 12.6367 96.7305 14.1445 96.7461 16.1445V17.7734H90.1484C90.1953 18.7109 90.4023 19.3984 90.7695 19.8359C91.1367 20.2656 91.7031 20.4805 92.4688 20.4805C93.5781 20.4805 94.5039 20.1016 95.2461 19.3438L96.5469 21.3477C96.1406 21.9102 95.5508 22.3672 94.7773 22.7188C94.0039 23.0625 93.1641 23.2344 92.2578 23.2344ZM90.1719 15.4531H93.4883V15.1484C93.4727 14.3906 93.3477 13.8164 93.1133 13.4258C92.8789 13.0352 92.4727 12.8398 91.8945 12.8398C91.3164 12.8398 90.8945 13.0469 90.6289 13.4609C90.3711 13.875 90.2188 14.5391 90.1719 15.4531ZM98.1758 16.2734C98.1758 14.1953 98.5273 12.6445 99.2305 11.6211C99.9336 10.5977 100.957 10.0859 102.301 10.0859C103.277 10.0859 104.09 10.5078 104.738 11.3516V5H108.078V23H105.066L104.914 21.7109C104.234 22.7266 103.359 23.2344 102.289 23.2344C100.961 23.2344 99.9453 22.7266 99.2422 21.7109C98.5469 20.6953 98.1914 19.2031 98.1758 17.2344V16.2734ZM101.504 17.1055C101.504 18.3555 101.637 19.2305 101.902 19.7305C102.168 20.2227 102.617 20.4688 103.25 20.4688C103.906 20.4688 104.402 20.1758 104.738 19.5898V13.8008C104.41 13.1758 103.918 12.8633 103.262 12.8633C102.652 12.8633 102.207 13.1094 101.926 13.6016C101.645 14.0938 101.504 14.9688 101.504 16.2266V17.1055ZM126.57 8.80859H122.352V23H118.895V8.80859H114.746V5.9375H126.57V8.80859ZM132.441 23C132.348 22.8047 132.254 22.4766 132.16 22.0156C131.566 22.8281 130.762 23.2344 129.746 23.2344C128.684 23.2344 127.801 22.8828 127.098 22.1797C126.402 21.4766 126.055 20.5664 126.055 19.4492C126.055 18.1211 126.477 17.0938 127.32 16.3672C128.172 15.6406 129.395 15.2695 130.988 15.2539H131.996V14.2344C131.996 13.6641 131.898 13.2617 131.703 13.0273C131.508 12.793 131.223 12.6758 130.848 12.6758C130.02 12.6758 129.605 13.1602 129.605 14.1289H126.289C126.289 12.957 126.727 11.9922 127.602 11.2344C128.484 10.4688 129.598 10.0859 130.941 10.0859C132.332 10.0859 133.406 10.4492 134.164 11.1758C134.93 11.8945 135.312 12.9258 135.312 14.2695V20.2344C135.328 21.3281 135.484 22.1836 135.781 22.8008V23H132.441ZM130.484 20.6328C130.852 20.6328 131.164 20.5586 131.422 20.4102C131.68 20.2617 131.871 20.0859 131.996 19.8828V17.2461H131.199C130.637 17.2461 130.191 17.4258 129.863 17.7852C129.543 18.1445 129.383 18.625 129.383 19.2266C129.383 20.1641 129.75 20.6328 130.484 20.6328ZM143.328 19.6016C143.328 19.3203 143.191 19.0625 142.918 18.8281C142.652 18.5859 142.055 18.2617 141.125 17.8555C139.758 17.3008 138.816 16.7266 138.301 16.1328C137.793 15.5391 137.539 14.8008 137.539 13.918C137.539 12.8086 137.938 11.8945 138.734 11.1758C139.539 10.4492 140.602 10.0859 141.922 10.0859C143.312 10.0859 144.426 10.4453 145.262 11.1641C146.098 11.8828 146.516 12.8477 146.516 14.0586H143.199C143.199 13.0273 142.77 12.5117 141.91 12.5117C141.559 12.5117 141.27 12.6211 141.043 12.8398C140.816 13.0586 140.703 13.3633 140.703 13.7539C140.703 14.0352 140.828 14.2852 141.078 14.5039C141.328 14.7148 141.918 15.0195 142.848 15.418C144.199 15.918 145.152 16.4766 145.707 17.0938C146.27 17.7031 146.551 18.4961 146.551 19.4727C146.551 20.6055 146.125 21.5156 145.273 22.2031C144.422 22.8906 143.305 23.2344 141.922 23.2344C140.992 23.2344 140.172 23.0547 139.461 22.6953C138.75 22.3281 138.191 21.8203 137.785 21.1719C137.387 20.5234 137.188 19.8242 137.188 19.0742H140.34C140.355 19.6523 140.488 20.0859 140.738 20.375C140.996 20.6641 141.414 20.8086 141.992 20.8086C142.883 20.8086 143.328 20.4062 143.328 19.6016ZM152.82 18.1133L151.93 19.1094V23H148.613V5H151.93V14.7266L152.34 14.1172L154.637 10.3203H158.586L154.906 15.5469L158.938 23H155.141L152.82 18.1133ZM165.711 19.6016C165.711 19.3203 165.574 19.0625 165.301 18.8281C165.035 18.5859 164.438 18.2617 163.508 17.8555C162.141 17.3008 161.199 16.7266 160.684 16.1328C160.176 15.5391 159.922 14.8008 159.922 13.918C159.922 12.8086 160.32 11.8945 161.117 11.1758C161.922 10.4492 162.984 10.0859 164.305 10.0859C165.695 10.0859 166.809 10.4453 167.645 11.1641C168.48 11.8828 168.898 12.8477 168.898 14.0586H165.582C165.582 13.0273 165.152 12.5117 164.293 12.5117C163.941 12.5117 163.652 12.6211 163.426 12.8398C163.199 13.0586 163.086 13.3633 163.086 13.7539C163.086 14.0352 163.211 14.2852 163.461 14.5039C163.711 14.7148 164.301 15.0195 165.23 15.418C166.582 15.918 167.535 16.4766 168.09 17.0938C168.652 17.7031 168.934 18.4961 168.934 19.4727C168.934 20.6055 168.508 21.5156 167.656 22.2031C166.805 22.8906 165.688 23.2344 164.305 23.2344C163.375 23.2344 162.555 23.0547 161.844 22.6953C161.133 22.3281 160.574 21.8203 160.168 21.1719C159.77 20.5234 159.57 19.8242 159.57 19.0742H162.723C162.738 19.6523 162.871 20.0859 163.121 20.375C163.379 20.6641 163.797 20.8086 164.375 20.8086C165.266 20.8086 165.711 20.4062 165.711 19.6016Z" fill="white"/>
    <path d="M20.3992 2.40002H15.3772C14.8852 1.008 13.5652 0 11.9992 0C10.4332 0 9.11319 1.008 8.62123 2.40002H3.59924C2.27326 2.40002 1.19922 3.474 1.19922 4.80003V21.6C1.19922 22.926 2.2732 24 3.59924 24H20.3992C21.7252 24 22.7993 22.926 22.7993 21.6V4.79998C22.7992 3.474 21.7252 2.40002 20.3992 2.40002ZM11.9992 2.40002C12.6592 2.40002 13.1992 2.934 13.1992 3.6C13.1992 4.266 12.6592 4.79998 11.9992 4.79998C11.3392 4.79998 10.7992 4.266 10.7992 3.6C10.7992 2.934 11.3392 2.40002 11.9992 2.40002ZM9.59925 19.2L4.79922 14.4L6.49723 12.702L9.59925 15.804L17.5012 7.90199L19.1993 9.60001L9.59925 19.2Z" fill="white"/>
</svg>
