<svg width="28" height="28" viewBox="0 0 28 28" fill="none"
	xmlns="http://www.w3.org/2000/svg">
	<path d="M14.0007 2.33333C7.67615 2.33333 2.33398 7.6755 2.33398 14C2.33398 20.3245 7.67615 25.6667 14.0007 25.6667C20.3252 25.6667 25.6673 20.3245 25.6673 14C25.6673 7.6755 20.3252 2.33333 14.0007 2.33333ZM14.0007 8.16666C16.0155 8.16666 17.5007 9.65066 17.5007 11.6667C17.5007 13.6827 16.0155 15.1667 14.0007 15.1667C11.987 15.1667 10.5007 13.6827 10.5007 11.6667C10.5007 9.65066 11.987 8.16666 14.0007 8.16666ZM8.04365 19.5673C9.09015 18.0273 10.8355 17.0007 12.834 17.0007H15.1673C17.167 17.0007 18.9112 18.0273 19.9577 19.5673C18.4667 21.1633 16.3515 22.1667 14.0007 22.1667C11.6498 22.1667 9.53465 21.1633 8.04365 19.5673Z" fill="#B2B5C3"/>
</svg>
