<svg width="24" height="22" viewBox="0 0 24 22" fill="none"
    xmlns="http://www.w3.org/2000/svg">
    <path d="M23.7654 20.2479L23.7218 20.2233L23.7654 20.2479C24.1559 19.5562 24.1438 18.704 23.7336 18.0239L13.8892 1.69772C13.4923 1.03954 12.7686 0.630801 12 0.630801C11.2314 0.630801 10.5076 1.03954 10.1107 1.69776L0.266343 18.0239C-0.143797 18.7041 -0.15593 19.5563 0.234639 20.2479L0.278142 20.2233L0.234642 20.2479C0.625305 20.9395 1.36128 21.3692 2.15557 21.3692H21.8444C22.6387 21.3692 23.3747 20.9395 23.7654 20.2479ZM1.68231 19.4304L1.63877 19.455L1.68231 19.4304C1.58608 19.26 1.58909 19.05 1.69008 18.8824L11.5345 2.55626C11.6323 2.39422 11.8108 2.29338 12 2.29338C12.1892 2.29338 12.3677 2.39422 12.4655 2.55627L22.3098 18.8825L22.3526 18.8566L22.3098 18.8825C22.4109 19.05 22.4139 19.26 22.3177 19.4304C22.2215 19.6007 22.04 19.7066 21.8444 19.7066H2.15557C1.95989 19.7066 1.77849 19.6007 1.68231 19.4304Z" fill="#B2B5C3" stroke="#B2B5C3" stroke-width="0.1"/>
</svg>
