<svg xmlns="http://www.w3.org/2000/svg" width="20.865" height="22.007" viewBox="0 0 20.865 22.007"> <path id="Path_2" data-name="Path 2" d="M21.8,9.312,15.747,3.307A2.639,2.639,0,0,0,13.771,2.5a2.8,2.8,0,0,0-1.977.836L5.484,9.743a.49.49,0,0,0,0,.71l.025.025a.49.49,0,0,0,.71,0l6.31-6.411a1.784,1.784,0,0,1,1.191-.532h.051a1.819,1.819,0,0,1,1.216.507l6.082,6.006a1.791,1.791,0,0,1,.532,1.242v6.893a2.26,2.26,0,0,1-2.255,2.255H8.094a2.287,2.287,0,0,1-2.281-2.281V13.595a.508.508,0,0,0-.507-.507h0a.508.508,0,0,0-.507.507v4.587A3.331,3.331,0,0,0,8.12,21.5H19.371a3.288,3.288,0,0,0,3.294-3.294V11.289A2.893,2.893,0,0,0,21.8,9.312Z" transform="translate(-3.3 -0.994)" fill="#444d5e" stroke="#444d5e" stroke-width="3"/> </svg>