<svg width="24" height="24" viewBox="0 0 24 24" fill="none"
    xmlns="http://www.w3.org/2000/svg">
    <path d="M5.00301 22H9.00301H15.003H19.003C20.106 22 21.003 21.103 21.003 20V11C21.003 10.735 20.898 10.48 20.71 10.293L12.71 2.29301C12.319 1.90201 11.687 1.90201 11.296 2.29301L3.29601 10.293C3.10801 10.48 3.00301 10.735 3.00301 11V20C3.00301 21.103 3.90001 22 5.00301 22ZM10.003 20V15H14.003V20H10.003ZM5.00301 11.414L12.003 4.41401L19.003 11.414L19.004 20H16.003V15C16.003 13.897 15.106 13 14.003 13H10.003C8.90001 13 8.00301 13.897 8.00301 15V20H5.00301V11.414Z" fill="#B2B6C4"/>
</svg>
