<svg width="24" height="24" viewBox="0 0 24 24" fill="none"
    xmlns="http://www.w3.org/2000/svg">
    <rect x="1.19922" y="0.5" width="9" height="3" rx="0.5" stroke="white"/>
    <rect x="7" y="6.40002" width="10" height="4" rx="1" fill="#9BC8F7"/>
    <rect x="7.5" y="6.90002" width="9" height="3" rx="0.5" stroke="white"/>
    <rect x="13.3008" y="12.8" width="10" height="4" rx="1" fill="#9BC8F7"/>
    <rect x="13.8008" y="13.3" width="9" height="3" rx="0.5" stroke="white"/>
    <rect x="13.3008" y="19.2" width="10" height="4" rx="1" fill="#9BC8F7"/>
    <rect x="13.8008" y="19.7" width="9" height="3" rx="0.5" stroke="white"/>
    <circle cx="2.80039" cy="5.20005" r="0.4" fill="white"/>
    <circle cx="2.80039" cy="6.80002" r="0.4" fill="white"/>
    <circle cx="2.80039" cy="8.4" r="0.4" fill="white"/>
    <circle cx="4.4" cy="8.4" r="0.4" fill="white"/>
    <circle cx="5.99961" cy="8.4" r="0.4" fill="white"/>
    <circle cx="9.20078" cy="11.6" r="0.4" fill="white"/>
    <circle cx="9.20078" cy="13.1999" r="0.4" fill="white"/>
    <circle cx="9.20078" cy="14.7999" r="0.4" fill="white"/>
    <circle cx="10.8004" cy="14.7999" r="0.4" fill="white"/>
    <circle cx="12.4" cy="14.7999" r="0.4" fill="white"/>
    <circle cx="9.20078" cy="18" r="0.4" fill="white"/>
    <circle cx="9.20078" cy="16.4" r="0.4" fill="white"/>
    <circle cx="9.20078" cy="19.6" r="0.4" fill="white"/>
    <circle cx="9.20078" cy="21.2" r="0.4" fill="white"/>
    <circle cx="10.8004" cy="21.2" r="0.4" fill="white"/>
    <circle cx="12.4" cy="21.2" r="0.4" fill="white"/>
</svg>
