<svg width="24" height="24" viewBox="0 0 24 24" fill="none"
    xmlns="http://www.w3.org/2000/svg">
    <path d="M19.1391 12.936C19.1751 12.636 19.1991 12.324 19.1991 12C19.1991 11.676 19.1751 11.364 19.1271 11.064L21.1551 9.47999C21.3351 9.33599 21.3831 9.07199 21.2751 8.86799L19.3551 5.54399C19.2351 5.32799 18.9831 5.25599 18.7671 5.32799L16.3791 6.28799C15.8751 5.90399 15.3471 5.59199 14.7591 5.35199L14.3991 2.80799C14.3631 2.56799 14.1591 2.39999 13.9191 2.39999H10.0791C9.83913 2.39999 9.64713 2.56799 9.61113 2.80799L9.25113 5.35199C8.66313 5.59199 8.12313 5.91599 7.63113 6.28799L5.24313 5.32799C5.02713 5.24399 4.77513 5.32799 4.65513 5.54399L2.73513 8.86799C2.61513 9.08399 2.66313 9.33599 2.85513 9.47999L4.88313 11.064C4.83513 11.364 4.79913 11.688 4.79913 12C4.79913 12.312 4.82313 12.636 4.87113 12.936L2.84313 14.52C2.66313 14.664 2.61513 14.928 2.72313 15.132L4.64313 18.456C4.76313 18.672 5.01513 18.744 5.23113 18.672L7.61913 17.712C8.12313 18.096 8.65113 18.408 9.23913 18.648L9.59913 21.192C9.64713 21.432 9.83913 21.6 10.0791 21.6H13.9191C14.1591 21.6 14.3631 21.432 14.3871 21.192L14.7471 18.648C15.3351 18.408 15.8751 18.084 16.3671 17.712L18.7551 18.672C18.9711 18.756 19.2231 18.672 19.3431 18.456L21.2631 15.132C21.3831 14.916 21.3351 14.664 21.1431 14.52L19.1391 12.936ZM11.9991 15.6C10.0191 15.6 8.39913 13.98 8.39913 12C8.39913 10.02 10.0191 8.39999 11.9991 8.39999C13.9791 8.39999 15.5991 10.02 15.5991 12C15.5991 13.98 13.9791 15.6 11.9991 15.6Z" fill="#B2B5C3"/>
</svg>
