<svg xmlns="http://www.w3.org/2000/svg" width="21" height="21" viewBox="0 0 21 21">
    <path id="Icon_weather-time-1" data-name="Icon weather-time-1" d="M4.488,14.347A10.3,10.3,0,0,1,5.905,9.069,10.491,10.491,0,0,1,9.738,5.236a10.48,10.48,0,0,1,9.334-.578A10.594,10.594,0,0,1,22.42,6.9a10.281,10.281,0,0,1,2.238,3.357A10.428,10.428,0,0,1,19.072,24,10.465,10.465,0,0,1,10.9,24a10.333,10.333,0,0,1-5.6-5.576A10.106,10.106,0,0,1,4.488,14.347Zm2.313,0A7.925,7.925,0,0,0,9.216,20.11,7.876,7.876,0,0,0,15,22.525a7.928,7.928,0,0,0,4.094-1.1,8.273,8.273,0,0,0,2.993-2.984,8.123,8.123,0,0,0,0-8.2A8.227,8.227,0,0,0,19.091,7.25a8.165,8.165,0,0,0-8.187,0,8.4,8.4,0,0,0-3,2.993A7.9,7.9,0,0,0,6.8,14.347Zm7.385,0V8.136a.764.764,0,0,1,.774-.774.784.784,0,0,1,.55.224.726.726,0,0,1,.233.55v3.292l.7-1.212a.756.756,0,0,1,.485-.354.8.8,0,0,1,.96.55.686.686,0,0,1-.075.587l-2.135,3.646a.7.7,0,0,1-.709.494.753.753,0,0,1-.55-.224A.788.788,0,0,1,14.186,14.347Z" transform="translate(-4.488 -3.828)" fill="#444d5e"/>
</svg>
